<?xml version="1.0" encoding="utf-8"?>
<!-- Generator: Adobe Illustrator 26.0.1, SVG Export Plug-In . SVG Version: 6.00 Build 0)  -->
<svg version="1.1" id="Layer_1" xmlns="http://www.w3.org/2000/svg" xmlns:xlink="http://www.w3.org/1999/xlink" x="0px" y="0px"
	 viewBox="0 0 299.01 281.58" style="enable-background:new 0 0 299.01 281.58;" xml:space="preserve">
<style type="text/css">
	.st0{fill:#FED506;}
</style>
<path class="st0" d="M10.7,134.51c3.53-1.21,11.52,9.54,27.06,21.1c1.16,0.86,3.29,2.4,6.42,3.21c7.25,1.86,13.93-1.84,16.51-3.21
	c11.59-6.17,23.39-9.84,33.02-12.84c0,0,20.89-6.51,41.27-5.5c1.7,0.08,6.79,2.66,9.17,0.46c1.07-0.99,1.47-2.74,1.07-4.13
	c-1-3.43-6.85-4.49-8.56-4.89c-10.7-2.53-20.04-17.68-24.49-28.17c-1.03-2.43-1.69-5.01-1.9-7.65c-0.51-6.14-0.44-19.1,4.08-43.06
	l0,0c0,0-7.64-4.6-11.01-11.92c-2.83-6.15-1.55-11.83-1.86-14.2c0-0.02-0.01-0.1,0.03-0.17c0.31-0.53,2.9,0.44,3.36,0.61
	c3.54,1.33,4.4,3.39,6.73,4.59c3.34,1.72,7.22,0.38,10.09-0.61c5.76-1.99,9.28-5.86,10.09-6.73c8.76-9.32,27.18-13.91,32.71-15.29
	c18.54-4.62,41.02,0.48,57.48,13.15c20.28,15.61,27.18,39.45,27.21,44.03c0,0.59-0.09,3.56,1.53,6.73c0.62,1.22,1.48,2.43,3.06,3.97
	c4.6,4.51,9.9,6.54,10.39,6.73c2.18,0.81,13.06,4.88,20.48,0.61c1.08-0.62,3.14-2.02,5.5-1.53c1.38,0.29,2.95,1.23,3.67,2.75
	c0.77,1.63,0.16,3.09-1.22,7.64c-1.58,5.21-1.31,5.07-1.83,6.42c-1.26,3.25-3.71,6.35-10.39,11.01c-7.73,5.38-12.76,8.89-20.48,10.7
	c0,0-5.24,1.23-28.74-0.61l0,0c0,0-4.9,5.15-5.5,11.01c-0.48,4.69,1.94,8.4,2.45,9.17c1.97,3.01,4.56,4.51,5.2,4.89
	c7.11,4.3,20.09,21.67,25.68,34.24c1.53,3.45,12.68,29.59,0.61,54.73c-12.25,25.53-40.67,33.82-52.59,37.3
	c-4.74,1.38-8.05,1.97-14.37,3.06c-30.87,5.33-48.73,3.3-112.51-1.53c-1.44-0.11-9.48-1.52-15.37-4.86
	c-10.17-5.76-23.72-20.13-29.26-27.23c-25.32-32.48-23.24-66.05-23.24-66.05C8.12,153.32,6.63,135.91,10.7,134.51z"/>
</svg>
