<?xml version="1.0" encoding="utf-8"?>
<!-- Generator: Adobe Illustrator 26.0.1, SVG Export Plug-In . SVG Version: 6.00 Build 0)  -->
<svg version="1.1" id="Layer_1" xmlns="http://www.w3.org/2000/svg" xmlns:xlink="http://www.w3.org/1999/xlink" x="0px" y="0px"
	 viewBox="0 0 375.13 154.09" style="enable-background:new 0 0 375.13 154.09;" xml:space="preserve">
<style type="text/css">
	.st0{fill:#FED506;}
	.st1{fill:#0E103E;}
	.st2{fill:#FDD506;}
</style>
<polyline class="st0" points="6.88,4.89 49.53,146.29 103.64,146.29 103.64,5.04 69.25,5.04 68.79,103.18 44.48,5.04 6.88,4.89 "/>
<polygon class="st0" points="107.08,4.89 202.21,4.89 202.21,34.39 141.94,34.39 141.71,57.32 180.69,57.32 180.69,87.25 
	141.48,87.36 141.71,114.65 202.21,114.65 202.21,146.75 107.08,146.29 "/>
<polyline class="st0" points="204.65,146.75 233.31,146.75 232.97,40.7 255.1,146.75 280.78,146.75 303.02,40.7 303.02,146.75 
	331.45,146.75 331.45,5.5 285.36,5.5 268.05,89.89 250.62,4.89 204.65,4.89 "/>
<rect x="334.32" y="4.89" class="st0" width="35.08" height="141.86"/>
<polygon class="st1" points="346.09,136.28 346.09,141.71 363.06,141.71 363.06,128.41 359.46,128.41 359.46,136.2 "/>
<polygon class="st1" points="363.06,126.8 363.06,121.91 360.54,121.15 360.54,115.03 363.06,114.27 363.06,108.92 346.09,115.11 
	346.09,120.69 362.37,126.8 "/>
<polygon class="st0" points="356.87,116.41 356.87,119.69 350.68,118.05 "/>
<path class="st1" d="M354.96,93.63c0.62-1.67,2.04-2.88,3.67-3.06c2.43-0.27,4.55,1.81,4.82,3.67c0.05,0.32,0.03,0.61,0,0.84v11.62
	h-17.35V95.92c-0.03-0.23-0.05-0.55,0-0.92c0.22-1.58,1.69-3.43,3.82-3.59c2.01-0.16,3.92,1.22,4.43,3.29L354.96,93.63z"/>
<path class="st2" d="M349.15,98.29l0.08,3.06h3.97v-2.73c0.05-0.21,0.09-0.52,0-0.87c-0.22-0.83-1.11-1.49-2.06-1.45
	c-0.93,0.03-1.75,0.72-1.99,1.68V98.29z"/>
<path class="st2" d="M356.25,101.35h3.21v-3.9c0.02-0.1,0.03-0.23,0-0.38c-0.13-0.62-0.89-1-1.45-1.07
	c-1.1-0.14-1.87,0.86-1.91,0.92L356.25,101.35z"/>
</svg>
